/* XPM */
static char *d4b809375efa45248afb98c11b22260bdntyOlr3NkjTvXyL[] = {
/* columns rows colors chars-per-pixel */
"64 64 9 1 ",
"  c black",
". c gray13",
"X c #6D4C41",
"o c #79444A",
"O c #FF6F00",
"+ c #AE5D40",
"@ c #FF9800",
"# c #FFC107",
"$ c #BA9158",
/* pixels */
"XXXXXXXX............####@@@@@@@@................XXXX........@@@@",
"XXXXXXXX............####@@@@@@@@................XXXX........@@@@",
"XXXXXXXX............####@@@@@@@@................XXXX........@@@@",
"XXXXXXXX............####@@@@@@@@................XXXX........@@@@",
"........$$$$$$$$$$$$$$$$$$$$$$$$$$$$$$$$$$$$$$$$$$$$$$$$........",
"........$$$$$$$$$$$$$$$$$$$$$$$$$$$$$$$$$$$$$$$$$$$$$$$$........",
"........$$$$$$$$$$$$$$$$$$$$$$$$$$$$$$$$$$$$$$$$$$$$$$$$........",
"........$$$$$$$$$$$$$$$$$$$$$$$$$$$$$$$$$$$$$$$$$$$$$$$$........",
"XXXX$$$$$$$$$$$$++++$$$$$$$$$$$$++++++++++++++++$$$$$$$$$$$$XXXX",
"XXXX$$$$$$$$$$$$++++$$$$$$$$$$$$++++++++++++++++$$$$$$$$$$$$XXXX",
"XXXX$$$$$$$$$$$$++++$$$$$$$$$$$$++++++++++++++++$$$$$$$$$$$$XXXX",
"XXXX$$$$$$$$$$$$++++$$$$$$$$$$$$++++++++++++++++$$$$$$$$$$$$XXXX",
"....$$$$$$$$++++++++$$$$$$$$$$$$++++++++++++++++++++$$$$$$$$....",
"....$$$$$$$$++++++++$$$$$$$$$$$$++++++++++++++++++++$$$$$$$$....",
"....$$$$$$$$++++++++$$$$$$$$$$$$++++++++++++++++++++$$$$$$$$....",
"....$$$$$$$$++++++++$$$$$$$$$$$$++++++++++++++++++++$$$$$$$$....",
"....$$$$++++####++++$$$$$$$$$$$$++++$$$$$$$$++++++++++++$$$$....",
"....$$$$++++####++++$$$$$$$$$$$$++++$$$$$$$$++++++++++++$$$$....",
"....$$$$++++####++++$$$$$$$$$$$$++++$$$$$$$$++++++++++++$$$$....",
"....$$$$++++####++++$$$$$$$$$$$$++++$$$$$$$$++++++++++++$$$$....",
"....$$$$++++++++++++                    $$$$++++++++++++$$$$....",
"....$$$$++++++++++++                    $$$$++++++++++++$$$$....",
"....$$$$++++++++++++                    $$$$++++++++++++$$$$....",
"....$$$$++++++++++++                    $$$$++++++++++++$$$$....",
"....$$$$++++++++    ############OOOOOOOO    ++++++++++++$$$$....",
"....$$$$++++++++    ############OOOOOOOO    ++++++++++++$$$$....",
"....$$$$++++++++    ############OOOOOOOO    ++++++++++++$$$$....",
"....$$$$++++++++    ############OOOOOOOO    ++++++++++++$$$$....",
"@@@@$$$$++++    ####@@@@@@@@@@@@@@@@@@@@OOOO    $$$$++++$$$$XXXX",
"@@@@$$$$++++    ####@@@@@@@@@@@@@@@@@@@@OOOO    $$$$++++$$$$XXXX",
"@@@@$$$$++++    ####@@@@@@@@@@@@@@@@@@@@OOOO    $$$$++++$$$$XXXX",
"@@@@$$$$++++    ####@@@@@@@@@@@@@@@@@@@@OOOO    $$$$++++$$$$XXXX",
"####oooo    ####@@@@####@@@@########@@@@OOOOOOOO    ++++oooo####",
"####oooo    ####@@@@####@@@@########@@@@OOOOOOOO    ++++oooo####",
"####oooo    ####@@@@####@@@@########@@@@OOOOOOOO    ++++oooo####",
"####oooo    ####@@@@####@@@@########@@@@OOOOOOOO    ++++oooo####",
"####oooo    ####@@@@@@@@@@@@########@@@@OOOOOOOO    ++++oooo....",
"####oooo    ####@@@@@@@@@@@@########@@@@OOOOOOOO    ++++oooo....",
"####oooo    ####@@@@@@@@@@@@########@@@@OOOOOOOO    ++++oooo....",
"####oooo    ####@@@@@@@@@@@@########@@@@OOOOOOOO    ++++oooo....",
"....oooo    ####@@@@@@@@OOOOOOOOOOOOOOOOOOOOOOOO    oooooooo....",
"....oooo    ####@@@@@@@@OOOOOOOOOOOOOOOOOOOOOOOO    oooooooo....",
"....oooo    ####@@@@@@@@OOOOOOOOOOOOOOOOOOOOOOOO    oooooooo....",
"....oooo    ####@@@@@@@@OOOOOOOOOOOOOOOOOOOOOOOO    oooooooo....",
"....oooo            OOOOOOOOOOOOOOOOOOOOOOOO            oooo....",
"....oooo            OOOOOOOOOOOOOOOOOOOOOOOO            oooo....",
"....oooo            OOOOOOOOOOOOOOOOOOOOOOOO            oooo....",
"....oooo            OOOOOOOOOOOOOOOOOOOOOOOO            oooo....",
"XXXX    ####@@@@OOOO                        @@@@@@@@OOOO    ....",
"XXXX    ####@@@@OOOO                        @@@@@@@@OOOO    ....",
"XXXX    ####@@@@OOOO                        @@@@@@@@OOOO    ....",
"XXXX    ####@@@@OOOO                        @@@@@@@@OOOO    ....",
"XXXX    OOOOOOOOOOOO    ++++++++++++    ++++OOOOOOOOOOOO    XXXX",
"XXXX    OOOOOOOOOOOO    ++++++++++++    ++++OOOOOOOOOOOO    XXXX",
"XXXX    OOOOOOOOOOOO    ++++++++++++    ++++OOOOOOOOOOOO    XXXX",
"XXXX    OOOOOOOOOOOO    ++++++++++++    ++++OOOOOOOOOOOO    XXXX",
"........            oooooooooooooooo                    ........",
"........            oooooooooooooooo                    ........",
"........            oooooooooooooooo                    ........",
"........            oooooooooooooooo                    ........",
"XXXX........@@@@........................................XXXX....",
"XXXX........@@@@........................................XXXX....",
"XXXX........@@@@........................................XXXX....",
"XXXX........@@@@........................................XXXX...."
};
