/* XPM */
static char *result[] = {
/* columns rows colors chars-per-pixel */
"64 64 6 1 ",
"  c #795548",
". c #FF9800",
"X c #F9A825",
"o c #FFC107",
"O c #FFEB3B",
"+ c None",
/* pixels */
"++++++++++++++++++++++++++++++++++++++++++++++++++++++++++++++++",
"++++++++++++++++++++++++++++++++++++++++++++++++++++++++++++++++",
"++++++++++++++++++++++++++++++++++++++++++++++++++++++++++++++++",
"++++++++++++++++++++++++++++++++++++++++++++++++++++++++++++++++",
"++++++++++++++++++++++++++++++++++++++++++++++++++++++++++++++++",
"++++++++++++++++++++++++++++++++++++++++++++++++++++++++++++++++",
"++++++++++++++++++++++++++++++++++++++++++++++++++++++++++++++++",
"++++++++++++++++++++++++++++++++++++++++++++++++++++++++++++++++",
"++++++++++++++++++++++++++++++++++++++++++++++++++++++++++++++++",
"++++++++++++++++++++++++++++++++++++++++++++++++++++++++++++++++",
"++++++++++++++++++++++++++++++++++++++++++++++++++++++++++++++++",
"++++++++++++++++++++++++++++++++++++++++++++++++++++++++++++++++",
"++++++++++++++++++++++++++++++++++++++++++++++++++++++++++++++++",
"++++++++++++++++++++++++++++++++++++++++++++++++++++++++++++++++",
"++++++++++++++++++++++++++++++++++++++++++++++++++++++++++++++++",
"++++++++++++++++++++++++++++++++++++++++++++++++++++++++++++++++",
"++++++++++++++++++++++++++++++++++++++++++++++++++++++++++++++++",
"++++++++++++++++++++++++++++++++++++++++++++++++++++++++++++++++",
"++++++++++++++++++++++++++++        ++++++++++++++++++++++++++++",
"+++++++++++++++++++++++++++ O OOOOOO +++++++++++++++++++++++++++",
"++++++++++++++++++++++++++ O OoooOooX ++++++++++++++++++++++++++",
"+++++++++++++++++++++++++ O OoooOooooX +++++++++++++++++++++++++",
"++++++++++++++++++++++++ O OoooOooooooX ++++++++++++++++++++++++",
"+++++++++++++++++++++++ O OoooO....oooOO +++++++++++++++++++++++",
"++++++++++++++++++++++ O OoooO.oooo.oOOOX ++++++++++++++++++++++",
"++++++++++++++++++++++ O OooO.oooooo.OOoX ++++++++++++++++++++++",
"+++++++++++++++++++++ O OooO.ooooooOO.oooo +++++++++++++++++++++",
"+++++++++++++++++++++ O OoOo.oooooOOO.oooo +++++++++++++++++++++",
"++++++++++++++++++++ O OoOo.oooooOOOoO.oooX ++++++++++++++++++++",
"++++++++++++++++++++ O OOo.oooooOOOoooO.ooX ++++++++++++++++++++",
"++++++++++++++++++++ O Ooo.ooooOOOooooO.ooX ++++++++++++++++++++",
"++++++++++++++++++++ O Ooo.oooOOOoooooO.ooX ++++++++++++++++++++",
"++++++++++++++++++++ O Ooo.ooOOOooooooO.ooX ++++++++++++++++++++",
"++++++++++++++++++++ O Ooo.oOOOoooooooO.oOX ++++++++++++++++++++",
"++++++++++++++++++++ O Ooo.OOOooooooooO.OoX ++++++++++++++++++++",
"++++++++++++++++++++ O OooO.OooooooooO.OooX ++++++++++++++++++++",
"+++++++++++++++++++++ O XOOO.oooooooO.oOoX +++++++++++++++++++++",
"+++++++++++++++++++++ O XOOo.oooooooO.OooX +++++++++++++++++++++",
"++++++++++++++++++++++ O oooo.oooooO.OooX ++++++++++++++++++++++",
"++++++++++++++++++++++ O Xoooo.oOOO.ooooX ++++++++++++++++++++++",
"+++++++++++++++++++++++ X Xoooo....oOooX +++++++++++++++++++++++",
"++++++++++++++++++++++++ X XoooooooOooX ++++++++++++++++++++++++",
"+++++++++++++++++++++++++ X XoooooOooX +++++++++++++++++++++++++",
"++++++++++++++++++++++++++ X XoooOooX ++++++++++++++++++++++++++",
"+++++++++++++++++++++++++++ X XXXXXX +++++++++++++++++++++++++++",
"++++++++++++++++++++++++++++        ++++++++++++++++++++++++++++",
"++++++++++++++++++++++++++++++++++++++++++++++++++++++++++++++++",
"++++++++++++++++++++++++++++++++++++++++++++++++++++++++++++++++",
"++++++++++++++++++++++++++++++++++++++++++++++++++++++++++++++++",
"++++++++++++++++++++++++++++++++++++++++++++++++++++++++++++++++",
"++++++++++++++++++++++++++++++++++++++++++++++++++++++++++++++++",
"++++++++++++++++++++++++++++++++++++++++++++++++++++++++++++++++",
"++++++++++++++++++++++++++++++++++++++++++++++++++++++++++++++++",
"++++++++++++++++++++++++++++++++++++++++++++++++++++++++++++++++",
"++++++++++++++++++++++++++++++++++++++++++++++++++++++++++++++++",
"++++++++++++++++++++++++++++++++++++++++++++++++++++++++++++++++",
"++++++++++++++++++++++++++++++++++++++++++++++++++++++++++++++++",
"++++++++++++++++++++++++++++++++++++++++++++++++++++++++++++++++",
"++++++++++++++++++++++++++++++++++++++++++++++++++++++++++++++++",
"++++++++++++++++++++++++++++++++++++++++++++++++++++++++++++++++",
"++++++++++++++++++++++++++++++++++++++++++++++++++++++++++++++++",
"++++++++++++++++++++++++++++++++++++++++++++++++++++++++++++++++",
"++++++++++++++++++++++++++++++++++++++++++++++++++++++++++++++++",
"++++++++++++++++++++++++++++++++++++++++++++++++++++++++++++++++"
};
