/* XPM */
static char *result[] = {
/* columns rows colors chars-per-pixel */
"64 64 6 1 ",
"  c #795548",
". c #FF9800",
"X c #F9A825",
"o c #FFC107",
"O c #FFEB3B",
"+ c None",
/* pixels */
"++++++++++++++++++++++++++++++++++++++++++++++++++++++++++++++++",
"++++++++++++++++++++++++++++++++++++++++++++++++++++++++++++++++",
"++++++++++++++++++++++++++++++++++++++++++++++++++++++++++++++++",
"++++++++++++++++++++++++++++++++++++++++++++++++++++++++++++++++",
"++++++++++++++++++++++++++++++++++++++++++++++++++++++++++++++++",
"++++++++++++++++++++++++++++++++++++++++++++++++++++++++++++++++",
"++++++++++++++++++++++++++++++++++++++++++++++++++++++++++++++++",
"++++++++++++++++++++++++++++++++++++++++++++++++++++++++++++++++",
"++++++++++++++++++++++++++++++++++++++++++++++++++++++++++++++++",
"++++++++++++++++++++++++++++++++++++++++++++++++++++++++++++++++",
"++++++++++++++++++++++++++++++++++++++++++++++++++++++++++++++++",
"++++++++++++++++++++++++++++++++++++++++++++++++++++++++++++++++",
"++++++++++++++++++++++++++++++++++++++++++++++++++++++++++++++++",
"++++++++++++++++++++++++++++++++++++++++++++++++++++++++++++++++",
"++++++++++++++++++++++++++++++++++++++++++++++++++++++++++++++++",
"++++++++++++++++++++++++++++++++++++++++++++++++++++++++++++++++",
"++++++++++++++++++++++++++++++++++++++++++++++++++++++++++++++++",
"++++++++++++++++++++++++++++++++++++++++++++++++++++++++++++++++",
"+++++++++++++++++++++++++++++     ++++++++++++++++++++++++++++++",
"++++++++++++++++++++++++++++ OOO O +++++++++++++++++++++++++++++",
"+++++++++++++++++++++++++++ OoooO O ++++++++++++++++++++++++++++",
"+++++++++++++++++++++++++++ OooOo O ++++++++++++++++++++++++++++",
"++++++++++++++++++++++++++ OooOooX O +++++++++++++++++++++++++++",
"++++++++++++++++++++++++++ OoO.ooX O +++++++++++++++++++++++++++",
"+++++++++++++++++++++++++ OoO.o.ooX O ++++++++++++++++++++++++++",
"+++++++++++++++++++++++++ oO.ooo.oX O ++++++++++++++++++++++++++",
"++++++++++++++++++++++++ OoO.ooo.OoX O +++++++++++++++++++++++++",
"++++++++++++++++++++++++ OO.ooooO.oX O +++++++++++++++++++++++++",
"++++++++++++++++++++++++ Oo.oooOO.oX O +++++++++++++++++++++++++",
"++++++++++++++++++++++++ Oo.ooOoO.oX O +++++++++++++++++++++++++",
"++++++++++++++++++++++++ oo.ooOoo.oX O +++++++++++++++++++++++++",
"++++++++++++++++++++++++ oo.oOooo.oX O +++++++++++++++++++++++++",
"++++++++++++++++++++++++ oo.ooooo.oX O +++++++++++++++++++++++++",
"++++++++++++++++++++++++ oO.ooooo.oX O +++++++++++++++++++++++++",
"++++++++++++++++++++++++ OO.ooOoO.oX O +++++++++++++++++++++++++",
"++++++++++++++++++++++++ Oo.oOooO.oX O +++++++++++++++++++++++++",
"++++++++++++++++++++++++ Oo.ooooO.OX O +++++++++++++++++++++++++",
"++++++++++++++++++++++++ Ooo.ooO.OoX O +++++++++++++++++++++++++",
"+++++++++++++++++++++++++ Oo.ooO.oX X ++++++++++++++++++++++++++",
"+++++++++++++++++++++++++ Ooo.O.OoX X ++++++++++++++++++++++++++",
"++++++++++++++++++++++++++ Ooo.OoX X +++++++++++++++++++++++++++",
"++++++++++++++++++++++++++ OooOooX X +++++++++++++++++++++++++++",
"+++++++++++++++++++++++++++ OoOoX X ++++++++++++++++++++++++++++",
"+++++++++++++++++++++++++++ OOooX X ++++++++++++++++++++++++++++",
"++++++++++++++++++++++++++++ XXX X +++++++++++++++++++++++++++++",
"+++++++++++++++++++++++++++++     ++++++++++++++++++++++++++++++",
"++++++++++++++++++++++++++++++++++++++++++++++++++++++++++++++++",
"++++++++++++++++++++++++++++++++++++++++++++++++++++++++++++++++",
"++++++++++++++++++++++++++++++++++++++++++++++++++++++++++++++++",
"++++++++++++++++++++++++++++++++++++++++++++++++++++++++++++++++",
"++++++++++++++++++++++++++++++++++++++++++++++++++++++++++++++++",
"++++++++++++++++++++++++++++++++++++++++++++++++++++++++++++++++",
"++++++++++++++++++++++++++++++++++++++++++++++++++++++++++++++++",
"++++++++++++++++++++++++++++++++++++++++++++++++++++++++++++++++",
"++++++++++++++++++++++++++++++++++++++++++++++++++++++++++++++++",
"++++++++++++++++++++++++++++++++++++++++++++++++++++++++++++++++",
"++++++++++++++++++++++++++++++++++++++++++++++++++++++++++++++++",
"++++++++++++++++++++++++++++++++++++++++++++++++++++++++++++++++",
"++++++++++++++++++++++++++++++++++++++++++++++++++++++++++++++++",
"++++++++++++++++++++++++++++++++++++++++++++++++++++++++++++++++",
"++++++++++++++++++++++++++++++++++++++++++++++++++++++++++++++++",
"++++++++++++++++++++++++++++++++++++++++++++++++++++++++++++++++",
"++++++++++++++++++++++++++++++++++++++++++++++++++++++++++++++++",
"++++++++++++++++++++++++++++++++++++++++++++++++++++++++++++++++"
};
