/* XPM */
static char *result[] = {
/* columns rows colors chars-per-pixel */
"64 64 4 1 ",
"  c #795548",
". c #F9A825",
"X c #FFEB3B",
"o c None",
/* pixels */
"oooooooooooooooooooooooooooooooooooooooooooooooooooooooooooooooo",
"oooooooooooooooooooooooooooooooooooooooooooooooooooooooooooooooo",
"oooooooooooooooooooooooooooooooooooooooooooooooooooooooooooooooo",
"oooooooooooooooooooooooooooooooooooooooooooooooooooooooooooooooo",
"oooooooooooooooooooooooooooooooooooooooooooooooooooooooooooooooo",
"oooooooooooooooooooooooooooooooooooooooooooooooooooooooooooooooo",
"oooooooooooooooooooooooooooooooooooooooooooooooooooooooooooooooo",
"oooooooooooooooooooooooooooooooooooooooooooooooooooooooooooooooo",
"oooooooooooooooooooooooooooooooooooooooooooooooooooooooooooooooo",
"oooooooooooooooooooooooooooooooooooooooooooooooooooooooooooooooo",
"oooooooooooooooooooooooooooooooooooooooooooooooooooooooooooooooo",
"oooooooooooooooooooooooooooooooooooooooooooooooooooooooooooooooo",
"oooooooooooooooooooooooooooooooooooooooooooooooooooooooooooooooo",
"oooooooooooooooooooooooooooooooooooooooooooooooooooooooooooooooo",
"oooooooooooooooooooooooooooooooooooooooooooooooooooooooooooooooo",
"oooooooooooooooooooooooooooooooooooooooooooooooooooooooooooooooo",
"oooooooooooooooooooooooooooooooooooooooooooooooooooooooooooooooo",
"oooooooooooooooooooooooooooooooooooooooooooooooooooooooooooooooo",
"oooooooooooooooooooooooooooooo   ooooooooooooooooooooooooooooooo",
"ooooooooooooooooooooooooooooo XXX oooooooooooooooooooooooooooooo",
"ooooooooooooooooooooooooooooo XXX oooooooooooooooooooooooooooooo",
"ooooooooooooooooooooooooooooo XXX oooooooooooooooooooooooooooooo",
"ooooooooooooooooooooooooooooo XXX oooooooooooooooooooooooooooooo",
"ooooooooooooooooooooooooooooo XXX oooooooooooooooooooooooooooooo",
"ooooooooooooooooooooooooooooo XXX oooooooooooooooooooooooooooooo",
"ooooooooooooooooooooooooooooo XXX oooooooooooooooooooooooooooooo",
"ooooooooooooooooooooooooooooo XXX oooooooooooooooooooooooooooooo",
"ooooooooooooooooooooooooooooo XXX oooooooooooooooooooooooooooooo",
"ooooooooooooooooooooooooooooo XXX oooooooooooooooooooooooooooooo",
"ooooooooooooooooooooooooooooo XXX oooooooooooooooooooooooooooooo",
"ooooooooooooooooooooooooooooo XXX oooooooooooooooooooooooooooooo",
"ooooooooooooooooooooooooooooo XXX oooooooooooooooooooooooooooooo",
"ooooooooooooooooooooooooooooo XXX oooooooooooooooooooooooooooooo",
"ooooooooooooooooooooooooooooo XXX oooooooooooooooooooooooooooooo",
"ooooooooooooooooooooooooooooo XXX oooooooooooooooooooooooooooooo",
"ooooooooooooooooooooooooooooo XXX oooooooooooooooooooooooooooooo",
"ooooooooooooooooooooooooooooo ... oooooooooooooooooooooooooooooo",
"ooooooooooooooooooooooooooooo ... oooooooooooooooooooooooooooooo",
"ooooooooooooooooooooooooooooo ... oooooooooooooooooooooooooooooo",
"ooooooooooooooooooooooooooooo ... oooooooooooooooooooooooooooooo",
"ooooooooooooooooooooooooooooo ... oooooooooooooooooooooooooooooo",
"ooooooooooooooooooooooooooooo ... oooooooooooooooooooooooooooooo",
"ooooooooooooooooooooooooooooo ... oooooooooooooooooooooooooooooo",
"ooooooooooooooooooooooooooooo ... oooooooooooooooooooooooooooooo",
"ooooooooooooooooooooooooooooo ... oooooooooooooooooooooooooooooo",
"oooooooooooooooooooooooooooooo   ooooooooooooooooooooooooooooooo",
"oooooooooooooooooooooooooooooooooooooooooooooooooooooooooooooooo",
"oooooooooooooooooooooooooooooooooooooooooooooooooooooooooooooooo",
"oooooooooooooooooooooooooooooooooooooooooooooooooooooooooooooooo",
"oooooooooooooooooooooooooooooooooooooooooooooooooooooooooooooooo",
"oooooooooooooooooooooooooooooooooooooooooooooooooooooooooooooooo",
"oooooooooooooooooooooooooooooooooooooooooooooooooooooooooooooooo",
"oooooooooooooooooooooooooooooooooooooooooooooooooooooooooooooooo",
"oooooooooooooooooooooooooooooooooooooooooooooooooooooooooooooooo",
"oooooooooooooooooooooooooooooooooooooooooooooooooooooooooooooooo",
"oooooooooooooooooooooooooooooooooooooooooooooooooooooooooooooooo",
"oooooooooooooooooooooooooooooooooooooooooooooooooooooooooooooooo",
"oooooooooooooooooooooooooooooooooooooooooooooooooooooooooooooooo",
"oooooooooooooooooooooooooooooooooooooooooooooooooooooooooooooooo",
"oooooooooooooooooooooooooooooooooooooooooooooooooooooooooooooooo",
"oooooooooooooooooooooooooooooooooooooooooooooooooooooooooooooooo",
"oooooooooooooooooooooooooooooooooooooooooooooooooooooooooooooooo",
"oooooooooooooooooooooooooooooooooooooooooooooooooooooooooooooooo",
"oooooooooooooooooooooooooooooooooooooooooooooooooooooooooooooooo"
};
