/* XPM */
static char *result[] = {
/* columns rows colors chars-per-pixel */
"64 64 6 1 ",
"  c #795548",
". c #FF9800",
"X c #F9A825",
"o c #FFC107",
"O c #FFEB3B",
"+ c None",
/* pixels */
"++++++++++++++++++++++++++++++++++++++++++++++++++++++++++++++++",
"++++++++++++++++++++++++++++++++++++++++++++++++++++++++++++++++",
"++++++++++++++++++++++++++++++++++++++++++++++++++++++++++++++++",
"++++++++++++++++++++++++++++++++++++++++++++++++++++++++++++++++",
"++++++++++++++++++++++++++++++++++++++++++++++++++++++++++++++++",
"++++++++++++++++++++++++++++++++++++++++++++++++++++++++++++++++",
"++++++++++++++++++++++++++++++++++++++++++++++++++++++++++++++++",
"++++++++++++++++++++++++++++++++++++++++++++++++++++++++++++++++",
"++++++++++++++++++++++++++++++++++++++++++++++++++++++++++++++++",
"++++++++++++++++++++++++++++++++++++++++++++++++++++++++++++++++",
"++++++++++++++++++++++++++++++++++++++++++++++++++++++++++++++++",
"++++++++++++++++++++++++++++++++++++++++++++++++++++++++++++++++",
"++++++++++++++++++++++++++++++++++++++++++++++++++++++++++++++++",
"++++++++++++++++++++++++++++++++++++++++++++++++++++++++++++++++",
"++++++++++++++++++++++++++++++++++++++++++++++++++++++++++++++++",
"++++++++++++++++++++++++++++++++++++++++++++++++++++++++++++++++",
"++++++++++++++++++++++++++++++++++++++++++++++++++++++++++++++++",
"++++++++++++++++++++++++++++++++++++++++++++++++++++++++++++++++",
"++++++++++++++++++++++++++++        ++++++++++++++++++++++++++++",
"++++++++++++++++++++++++++  OOOOOOOO  ++++++++++++++++++++++++++",
"++++++++++++++++++++++++  OOooOoooooXX  ++++++++++++++++++++++++",
"+++++++++++++++++++++++ OOoooOooooooooXX +++++++++++++++++++++++",
"++++++++++++++++++++++ OOoooOooooooooooOX ++++++++++++++++++++++",
"+++++++++++++++++++++ OOoooOo......oooOOOX +++++++++++++++++++++",
"++++++++++++++++++++ OOoooO..oooooo..OOOooX ++++++++++++++++++++",
"++++++++++++++++++++ OoooO.oooooooooO.OoooX ++++++++++++++++++++",
"+++++++++++++++++++ OoooO.oooooooooOOO.ooooX +++++++++++++++++++",
"+++++++++++++++++++ OooO.oooooooooOOOoo.oooX +++++++++++++++++++",
"++++++++++++++++++ OooOo.ooooooooOOOooo.ooooX ++++++++++++++++++",
"++++++++++++++++++ OoOo.ooooooooOOOooooo.oOoX ++++++++++++++++++",
"++++++++++++++++++ OOoo.oooooooOOOoooooo.OooX ++++++++++++++++++",
"++++++++++++++++++ Oooo.ooooooOOOooooooo.oooX ++++++++++++++++++",
"++++++++++++++++++ Oooo.oooooOOOoooooooO.oooX ++++++++++++++++++",
"++++++++++++++++++ Oooo.ooooOOOoooooooOo.oooX ++++++++++++++++++",
"++++++++++++++++++ Ooooo.ooOOOoooooooOo.oooOX ++++++++++++++++++",
"++++++++++++++++++ Ooooo.oOOOoooooooOoo.ooOoX ++++++++++++++++++",
"+++++++++++++++++++ Ooooo.OOoooooooOoo.ooOoX +++++++++++++++++++",
"+++++++++++++++++++ OoooOO.oooooooOoo.ooOooX +++++++++++++++++++",
"++++++++++++++++++++ OoOOOo..ooooOo..ooOooX ++++++++++++++++++++",
"++++++++++++++++++++ OOOOoooo......oooOoooX ++++++++++++++++++++",
"+++++++++++++++++++++ OOoooooooOoooooOoooX +++++++++++++++++++++",
"++++++++++++++++++++++ OooooooOoooooOoooX ++++++++++++++++++++++",
"+++++++++++++++++++++++ XXoooOoooooOooXX +++++++++++++++++++++++",
"++++++++++++++++++++++++  XXOoooooOoXX  ++++++++++++++++++++++++",
"++++++++++++++++++++++++++  XXXXXXXX  ++++++++++++++++++++++++++",
"++++++++++++++++++++++++++++        ++++++++++++++++++++++++++++",
"++++++++++++++++++++++++++++++++++++++++++++++++++++++++++++++++",
"++++++++++++++++++++++++++++++++++++++++++++++++++++++++++++++++",
"++++++++++++++++++++++++++++++++++++++++++++++++++++++++++++++++",
"++++++++++++++++++++++++++++++++++++++++++++++++++++++++++++++++",
"++++++++++++++++++++++++++++++++++++++++++++++++++++++++++++++++",
"++++++++++++++++++++++++++++++++++++++++++++++++++++++++++++++++",
"++++++++++++++++++++++++++++++++++++++++++++++++++++++++++++++++",
"++++++++++++++++++++++++++++++++++++++++++++++++++++++++++++++++",
"++++++++++++++++++++++++++++++++++++++++++++++++++++++++++++++++",
"++++++++++++++++++++++++++++++++++++++++++++++++++++++++++++++++",
"++++++++++++++++++++++++++++++++++++++++++++++++++++++++++++++++",
"++++++++++++++++++++++++++++++++++++++++++++++++++++++++++++++++",
"++++++++++++++++++++++++++++++++++++++++++++++++++++++++++++++++",
"++++++++++++++++++++++++++++++++++++++++++++++++++++++++++++++++",
"++++++++++++++++++++++++++++++++++++++++++++++++++++++++++++++++",
"++++++++++++++++++++++++++++++++++++++++++++++++++++++++++++++++",
"++++++++++++++++++++++++++++++++++++++++++++++++++++++++++++++++",
"++++++++++++++++++++++++++++++++++++++++++++++++++++++++++++++++"
};
