/* XPM */
static char *result[] = {
/* columns rows colors chars-per-pixel */
"64 64 6 1 ",
"  c #795548",
". c #FF9800",
"X c #F9A825",
"o c #FFC107",
"O c #FFEB3B",
"+ c None",
/* pixels */
"++++++++++++++++++++++++++++++++++++++++++++++++++++++++++++++++",
"++++++++++++++++++++++++++++++++++++++++++++++++++++++++++++++++",
"++++++++++++++++++++++++++++++++++++++++++++++++++++++++++++++++",
"++++++++++++++++++++++++++++++++++++++++++++++++++++++++++++++++",
"++++++++++++++++++++++++++++++++++++++++++++++++++++++++++++++++",
"++++++++++++++++++++++++++++++++++++++++++++++++++++++++++++++++",
"++++++++++++++++++++++++++++++++++++++++++++++++++++++++++++++++",
"++++++++++++++++++++++++++++++++++++++++++++++++++++++++++++++++",
"++++++++++++++++++++++++++++++++++++++++++++++++++++++++++++++++",
"++++++++++++++++++++++++++++++++++++++++++++++++++++++++++++++++",
"++++++++++++++++++++++++++++++++++++++++++++++++++++++++++++++++",
"++++++++++++++++++++++++++++++++++++++++++++++++++++++++++++++++",
"++++++++++++++++++++++++++++++++++++++++++++++++++++++++++++++++",
"++++++++++++++++++++++++++++++++++++++++++++++++++++++++++++++++",
"++++++++++++++++++++++++++++++++++++++++++++++++++++++++++++++++",
"++++++++++++++++++++++++++++++++++++++++++++++++++++++++++++++++",
"++++++++++++++++++++++++++++++++++++++++++++++++++++++++++++++++",
"++++++++++++++++++++++++++++++++++++++++++++++++++++++++++++++++",
"+++++++++++++++++++++++++++        +++++++++++++++++++++++++++++",
"++++++++++++++++++++++++++ OOOOOO O ++++++++++++++++++++++++++++",
"+++++++++++++++++++++++++ OOooOooX O +++++++++++++++++++++++++++",
"+++++++++++++++++++++++++ OooOoooX OO ++++++++++++++++++++++++++",
"++++++++++++++++++++++++ OooOoooooX OO +++++++++++++++++++++++++",
"+++++++++++++++++++++++ OooO...ooooX OO ++++++++++++++++++++++++",
"+++++++++++++++++++++++ OoO.ooo.oooX OO ++++++++++++++++++++++++",
"++++++++++++++++++++++ OoO.ooooo.ooOX OO +++++++++++++++++++++++",
"++++++++++++++++++++++ OO.ooooooo.OOX OO +++++++++++++++++++++++",
"+++++++++++++++++++++ OOo.ooooooo.OooX OO ++++++++++++++++++++++",
"+++++++++++++++++++++ Oo.ooooooooO.ooX OO ++++++++++++++++++++++",
"+++++++++++++++++++++ Oo.ooooooooO.ooX OO ++++++++++++++++++++++",
"+++++++++++++++++++++ Oo.oooooooOO.ooX OO ++++++++++++++++++++++",
"+++++++++++++++++++++ Oo.ooooooOOO.ooX OO ++++++++++++++++++++++",
"+++++++++++++++++++++ Oo.oooooOOoO.ooX OO ++++++++++++++++++++++",
"+++++++++++++++++++++ Oo.ooooOOooO.ooX OO ++++++++++++++++++++++",
"+++++++++++++++++++++ Oo.oooOOoooO.ooX OO ++++++++++++++++++++++",
"+++++++++++++++++++++ Oo.ooOOooooO.ooX OO ++++++++++++++++++++++",
"+++++++++++++++++++++ Ooo.oOooooO.oooX OO ++++++++++++++++++++++",
"++++++++++++++++++++++ Xo.ooooooO.ooO OO +++++++++++++++++++++++",
"++++++++++++++++++++++ XOO.ooooO.ooOX OO +++++++++++++++++++++++",
"+++++++++++++++++++++++ Ooo.OOO.ooOX XX ++++++++++++++++++++++++",
"+++++++++++++++++++++++ Xooo...ooOoX XX ++++++++++++++++++++++++",
"++++++++++++++++++++++++ XooooooOoX XX +++++++++++++++++++++++++",
"++++++++++++++++++++++++ XoooooOooX X ++++++++++++++++++++++++++",
"+++++++++++++++++++++++++ XoooOooX X +++++++++++++++++++++++++++",
"++++++++++++++++++++++++++ XXXXXX X ++++++++++++++++++++++++++++",
"+++++++++++++++++++++++++++        +++++++++++++++++++++++++++++",
"++++++++++++++++++++++++++++++++++++++++++++++++++++++++++++++++",
"++++++++++++++++++++++++++++++++++++++++++++++++++++++++++++++++",
"++++++++++++++++++++++++++++++++++++++++++++++++++++++++++++++++",
"++++++++++++++++++++++++++++++++++++++++++++++++++++++++++++++++",
"++++++++++++++++++++++++++++++++++++++++++++++++++++++++++++++++",
"++++++++++++++++++++++++++++++++++++++++++++++++++++++++++++++++",
"++++++++++++++++++++++++++++++++++++++++++++++++++++++++++++++++",
"++++++++++++++++++++++++++++++++++++++++++++++++++++++++++++++++",
"++++++++++++++++++++++++++++++++++++++++++++++++++++++++++++++++",
"++++++++++++++++++++++++++++++++++++++++++++++++++++++++++++++++",
"++++++++++++++++++++++++++++++++++++++++++++++++++++++++++++++++",
"++++++++++++++++++++++++++++++++++++++++++++++++++++++++++++++++",
"++++++++++++++++++++++++++++++++++++++++++++++++++++++++++++++++",
"++++++++++++++++++++++++++++++++++++++++++++++++++++++++++++++++",
"++++++++++++++++++++++++++++++++++++++++++++++++++++++++++++++++",
"++++++++++++++++++++++++++++++++++++++++++++++++++++++++++++++++",
"++++++++++++++++++++++++++++++++++++++++++++++++++++++++++++++++",
"++++++++++++++++++++++++++++++++++++++++++++++++++++++++++++++++"
};
