/* XPM */
static char *result[] = {
/* columns rows colors chars-per-pixel */
"64 64 6 1 ",
"  c #795548",
". c #FF9800",
"X c #F9A825",
"o c #FFC107",
"O c #FFEB3B",
"+ c None",
/* pixels */
"++++++++++++++++++++++++++++++++++++++++++++++++++++++++++++++++",
"++++++++++++++++++++++++++++++++++++++++++++++++++++++++++++++++",
"++++++++++++++++++++++++++++++++++++++++++++++++++++++++++++++++",
"++++++++++++++++++++++++++++++++++++++++++++++++++++++++++++++++",
"++++++++++++++++++++++++++++++++++++++++++++++++++++++++++++++++",
"++++++++++++++++++++++++++++++++++++++++++++++++++++++++++++++++",
"++++++++++++++++++++++++++++++++++++++++++++++++++++++++++++++++",
"++++++++++++++++++++++++++++++++++++++++++++++++++++++++++++++++",
"++++++++++++++++++++++++++++++++++++++++++++++++++++++++++++++++",
"++++++++++++++++++++++++++++++++++++++++++++++++++++++++++++++++",
"++++++++++++++++++++++++++++++++++++++++++++++++++++++++++++++++",
"++++++++++++++++++++++++++++++++++++++++++++++++++++++++++++++++",
"++++++++++++++++++++++++++++++++++++++++++++++++++++++++++++++++",
"++++++++++++++++++++++++++++++++++++++++++++++++++++++++++++++++",
"++++++++++++++++++++++++++++++++++++++++++++++++++++++++++++++++",
"++++++++++++++++++++++++++++++++++++++++++++++++++++++++++++++++",
"++++++++++++++++++++++++++++++++++++++++++++++++++++++++++++++++",
"++++++++++++++++++++++++++++++++++++++++++++++++++++++++++++++++",
"+++++++++++++++++++++++++++++      +++++++++++++++++++++++++++++",
"++++++++++++++++++++++++++++ OO OOO ++++++++++++++++++++++++++++",
"+++++++++++++++++++++++++++ OO OoooO +++++++++++++++++++++++++++",
"+++++++++++++++++++++++++++ OO OooOo +++++++++++++++++++++++++++",
"++++++++++++++++++++++++++ OO OooOooX ++++++++++++++++++++++++++",
"++++++++++++++++++++++++++ OO OoO.ooX ++++++++++++++++++++++++++",
"+++++++++++++++++++++++++ OO OoO.o.ooX +++++++++++++++++++++++++",
"+++++++++++++++++++++++++ OO oO.ooo.oX +++++++++++++++++++++++++",
"++++++++++++++++++++++++ OO OoO.ooo.OoX ++++++++++++++++++++++++",
"++++++++++++++++++++++++ OO OO.ooooO.oX ++++++++++++++++++++++++",
"++++++++++++++++++++++++ OO Oo.oooOO.oX ++++++++++++++++++++++++",
"++++++++++++++++++++++++ OO Oo.ooOoO.oX ++++++++++++++++++++++++",
"++++++++++++++++++++++++ OO oo.ooOoo.oX ++++++++++++++++++++++++",
"++++++++++++++++++++++++ OO oo.oOooo.oX ++++++++++++++++++++++++",
"++++++++++++++++++++++++ OO oo.ooooo.oX ++++++++++++++++++++++++",
"++++++++++++++++++++++++ OO oO.ooooo.oX ++++++++++++++++++++++++",
"++++++++++++++++++++++++ OO OO.ooOoO.oX ++++++++++++++++++++++++",
"++++++++++++++++++++++++ OO Oo.oOooO.oX ++++++++++++++++++++++++",
"++++++++++++++++++++++++ OO Oo.ooooO.OX ++++++++++++++++++++++++",
"++++++++++++++++++++++++ OO Ooo.ooO.OoX ++++++++++++++++++++++++",
"+++++++++++++++++++++++++ XX Oo.ooO.oX +++++++++++++++++++++++++",
"+++++++++++++++++++++++++ XX Ooo.O.OoX +++++++++++++++++++++++++",
"++++++++++++++++++++++++++ XX Ooo.OoX ++++++++++++++++++++++++++",
"++++++++++++++++++++++++++ XX OooOooX ++++++++++++++++++++++++++",
"+++++++++++++++++++++++++++ XX OoOoX +++++++++++++++++++++++++++",
"+++++++++++++++++++++++++++ XX OOooX +++++++++++++++++++++++++++",
"++++++++++++++++++++++++++++ XX XXX ++++++++++++++++++++++++++++",
"+++++++++++++++++++++++++++++      +++++++++++++++++++++++++++++",
"++++++++++++++++++++++++++++++++++++++++++++++++++++++++++++++++",
"++++++++++++++++++++++++++++++++++++++++++++++++++++++++++++++++",
"++++++++++++++++++++++++++++++++++++++++++++++++++++++++++++++++",
"++++++++++++++++++++++++++++++++++++++++++++++++++++++++++++++++",
"++++++++++++++++++++++++++++++++++++++++++++++++++++++++++++++++",
"++++++++++++++++++++++++++++++++++++++++++++++++++++++++++++++++",
"++++++++++++++++++++++++++++++++++++++++++++++++++++++++++++++++",
"++++++++++++++++++++++++++++++++++++++++++++++++++++++++++++++++",
"++++++++++++++++++++++++++++++++++++++++++++++++++++++++++++++++",
"++++++++++++++++++++++++++++++++++++++++++++++++++++++++++++++++",
"++++++++++++++++++++++++++++++++++++++++++++++++++++++++++++++++",
"++++++++++++++++++++++++++++++++++++++++++++++++++++++++++++++++",
"++++++++++++++++++++++++++++++++++++++++++++++++++++++++++++++++",
"++++++++++++++++++++++++++++++++++++++++++++++++++++++++++++++++",
"++++++++++++++++++++++++++++++++++++++++++++++++++++++++++++++++",
"++++++++++++++++++++++++++++++++++++++++++++++++++++++++++++++++",
"++++++++++++++++++++++++++++++++++++++++++++++++++++++++++++++++",
"++++++++++++++++++++++++++++++++++++++++++++++++++++++++++++++++"
};
