/* XPM */
static char *_df2ad816d3e450b9a2b8284671e23a7Zr2xzjz6Bdsw1znd[] = {
/* columns rows colors chars-per-pixel */
"120 120 64 1 ",
"  c black",
". c gray2",
"X c #0B0B0B",
"o c #0C0C0C",
"O c #111111",
"+ c #151515",
"@ c #181818",
"# c gray12",
"$ c #202020",
"% c gray14",
"& c gray17",
"* c #2D2D2D",
"= c gray20",
"- c #353535",
"; c gray23",
": c #3E3E3E",
"> c #434343",
", c gray28",
"< c #484848",
"1 c #4C4C4C",
"2 c #535353",
"3 c #565656",
"4 c #5B5B5B",
"5 c gray37",
"6 c gray39",
"7 c gray40",
"8 c gray42",
"9 c #6F6F6F",
"0 c gray44",
"q c #777777",
"w c gray48",
"e c #7C7C7C",
"r c gray51",
"t c gray52",
"y c #8B8B8B",
"u c #8D8D8D",
"i c #929292",
"p c #979797",
"a c #9B9B9B",
"s c #9D9D9D",
"d c #A2A2A2",
"f c #A5A5A5",
"g c #A9A9A9",
"h c #AFAFAF",
"j c gray69",
"k c #B4B4B4",
"l c #B9B9B9",
"z c gray75",
"x c #C0C0C0",
"c c gray78",
"v c #CBCBCB",
"b c gray81",
"n c LightGray",
"m c gray84",
"M c gray85",
"N c gainsboro",
"B c #E1E1E1",
"V c gray90",
"C c #EAEAEA",
"Z c #ECECEC",
"A c #F3F3F3",
"S c #F4F4F4",
"D c gray98",
"F c white",
/* pixels */
"FFFFFFFFFFFFFFFFFFFFFFFFFFFFFFFFFFFFFFFFFFFFFFFFFAMzfy04<::*-:>27eajbVDFFFFFFFFFFFFFFFFFFFFFFFFFFFFFFFFFFFFFFFFFFFFFFFFF",
"FFFFFFFFFFFFFFFFFFFFFFFFFFFFFFFFFFFFFFFFFFFFSbs8:$X                  O*3tkVFFFFFFFFFFFFFFFFFFFFFFFFFFFFFFFFFFFFFFFFFFFFF",
"FFFFFFFFFFFFFFFFFFFFFFFFFFFFFFFFFFFFFFFFFVf7*X                            @,tcDFFFFFFFFFFFFFFFFFFFFFFFFFFFFFFFFFFFFFFFFF",
"FFFFFFFFFFFFFFFFFFFFFFFFFFFFFFFFFFFFFFCf3@                                   .-ebFFFFFFFFFFFFFFFFFFFFFFFFFFFFFFFFFFFFFFF",
"FFFFFFFFFFFFFFFFFFFFFFFFFFFFFFFFFFFFv9#                                         .,sCFFFFFFFFFFFFFFFFFFFFFFFFFFFFFFFFFFFF",
"FFFFFFFFFFFFFFFFFFFFFFFFFFFFFFFFFFk1.              .+&:1589w0973,=$o               $eNFFFFFFFFFFFFFFFFFFFFFFFFFFFFFFFFFF",
"FFFFFFFFFFFFFFFFFFFFFFFFFFFFFFFFg:            .%1egvBSFFFFFFFFFFFDZmli7;O            +qNFFFFFFFFFFFFFFFFFFFFFFFFFFFFFFFF",
"FFFFFFFFFFFFFFFFFFFFFFFFFFFFFFl,           +1ucZFFFFFFFFFFFFFFFFFFFFFFFFMh9=           @rCFFFFFFFFFFFFFFFFFFFFFFFFFFFFFF",
"FFFFFFFFFFFFFFFFFFFFFFFFFFFFM5          O3fBFFFFFFFFFFp44fFFFFr46mFFFFFFFFFSce=          %sFFFFFFFFFFFFFFFFFFFFFFFFFFFFF",
"FFFFFFFFFFFFFFFFFFFFFFFFFFDi+         =yNFFFFFFFFFFFFF1  ONFFD&  lFFFFFFFFFFFFSl5O         1bFFFFFFFFFFFFFFFFFFFFFFFFFFF",
"FFFFFFFFFFFFFFFFFFFFFFFFFn,         <hSFFFFFFFFFFFFFFF3   5FFD-  zFFFFFFFFFFFFFFFMw#        ouFFFFFFFFFFFFFFFFFFFFFFFFFF",
"FFFFFFFFFFFFFFFFFFFFFFFFa+        <kFFFFFFFFFFFFFFFFFF3    lFD-  zFFFFFFFFFFFFFFFFFVr#        1NFFFFFFFFFFFFFFFFFFFFFFFF",
"FFFFFFFFFFFFFFFFFFFFFFZ7        -hFFFFFFFFFFFFFFFFFFFF3    -DF-  zFFFFFFFFFFFFFFFFFFFB0X       $jFFFFFFFFFFFFFFFFFFFFFFF",
"FFFFFFFFFFFFFFFFFFFFFM;       +ySFFFFFFFFFFFFFFFFFFFFF3     iF-  zFFFFFFFFFFFFFFFFFFFFFv<       .yFFFFFFFFFFFFFFFFFFFFFF",
"FFFFFFFFFFFFFFFFFFFFx#       1mFFFFFFFFFFFFFFFFFFFFFFF3  1X @N:  zFFFFFFFFFFFFFFFFFFFFFFFp+       8DFFFFFFFFFFFFFFFFFFFF",
"FFFFFFFFFFFFFFFFFFFgo      oiFFFFFFFFFFFFFFFFFFFFFFFFF3  f8  6;  zFFFFFFFFFFFFFFFFFFFFFFFFm<       1ZFFFFFFFFFFFFFFFFFFF",
"FFFFFFFFFFFFFFFFFFa.      =cFFFFFFFFFFFFFFFFFFFFFFFFFF3  gVO .X  zFFFFFFFFFFFFFFFFFFFFFFFFFDe.      :VFFFFFFFFFFFFFFFFFF",
"FFFFFFFFFFFFFFFFFi       4ZFFFFFFFFFFFFFFFFFFFFFFFFFFF3  sFy     zFFFFFFFFFFFFFFFFFFFFFFFFFFFh+      ;VFFFFFFFFFFFFFFFFF",
"FFFFFFFFFFFFFFFFp       eFFFFFFFFFFFFFFFFFFFFFFFFFFFFF3  sFS-    zFFFFFFFFFFFFFFFFFFFFFFFFFFFFb*      ;CFFFFFFFFFFFFFFFF",
"FFFFFFFFFFFFFFFf.     .pFFFFFFFFFFFFFFFFFFFFFFFFFFFFFF3  sFFl.   zFFFFFFFFFFFFFFFFFFFFFFFFFFFFFB>      >ZFFFFFFFFFFFFFFF",
"FFFFFFFFFFFFFFlX     XfFFFFFFFFFFFFFFFFFFFFFFFFFFFFFFF1  pFFF5   lFFFFFFFFFFFFFFFFFFFFFFFFFFFFFFZ1      2DFFFFFFFFFFFFFF",
"FFFFFFFFFFFFFn+     ojFFFFFFFFFFFFFFFFFFFFFFFFFFFFFFFFy<<lFFFB3<1nFFFFFFFFFFFFFFFFFFFFFFFFFFFFFFFA1      0FFFFFFFFFFFFFF",
"FFFFFFFFFFFFC=     .gFFFFFFFFFFFFFFFFFFFFFFFFFFFFFFFFFFFFFFFFFFFFFFFFFFFFFFFFFFFFFFFFFFFFFFFFFFFFFA<      pFFFFFFFFFFFFF",
"FFFFFFFFFFFF3      sFFFFFFFFFFFFFFFFFFFFFFFFFFFFFFFFFFFFFFFFFFFFFFFFFFFFFFFFFFFFFFFFFFFFFFFFFFFFFFFZ;     XxFFFFFFFFFFFF",
"FFFFFFFFFFFu      tFFFFFFFFFFFFFFFFFFFFFFFFFFFFFFFFFFFFFFSt;3cFFFFFFFFFFFFFFFFFFFFFFFFFFFFFFFFFFFFFFB&     %VFFFFFFFFFFF",
"FFFFFFFFFFcX     6FFFFFFFFFFFFFFFFFFFFFFFFFFFFFFFFFFFFFFFw   +MFFFFFFFFFFFFFFFFFFFFFFFFFFFFFFFFFFFFFFvO     4FFFFFFFFFFF",
"FFFFFFFFFA=     ;AFFFFFFFFFFFFFFFFFFFFFFFFFFFFFFFFFFFFFFA$    uFFFFFFFFFFFFFFFFFFFFFFFFFFFFFFFFFFFFFFFf      dFFFFFFFFFF",
"FFFFFFFFFe     +mFFFFFFFFFFFFFFFFFFFFFFFFFFFFFFFFFFFFFFFnX    6FFFFFFFFFFFFFFFFFFFFFFFFFFFFFFFFFFFFFFFF0     @BFFFFFFFFF",
"FFFFFFFFvX     dFFFFFFFFFFFFFFFFFFFFFFFFFFFFFFFFFFFFFFFFg     -DFFFFFFFFFFFFFFFFFFFFFFFFFFFFFFFFFFFFFFFS;     5FFFFFFFFF",
"FFFFFFFF,     5FFFFFFFFFFFFFFFFFFFFFFFFFFFFFFFFFFFFFFFFFe     +BFFFFFFFFFFFFFFFFFFFFFFFFFFFFFFFFFFFFFFFFbo     kFFFFFFFF",
"FFFFFFFf     #VFFFFFFFFFFFFFFFFFFFFFFFFFFFFFFFFFFFFFFFFF1      zFFFFFFFFFFFFFFFFFFFFFFFFFFFFFFFFFFFFFFFFFt     -SFFFFFFF",
"FFFFFFA&     dFFFFFFFFFFFFFFFFFFFFFFFFFFFFFFFFFFFFFFFFFA%      iFFFFFFFFFFFFFFFFFFFFFFFFFFFFFFFFFFFFFFFFFS=     aFFFFFFF",
"FFFFFFi     <FFFFFFFFFFFFFFFFFFFFFFFFFFFFFFFFFFFFFFFFFFnX      6FFFFFFFFFFFFFFFFFFFFFFFFFFFFFFFFFFFFFFFFFFl.    %ZFFFFFF",
"FFFFFZ$    XvFFFFFFFFFFFFFFFFFFFFFFFFFFFFFFFFFFFFFFFFFFg       -DFFFFFFFFFFFFFFFFFFFFFFFFFFFFFFFFFFFFFFFFFF4     uFFFFFF",
"FFFFFp     6FFFFFFFFFFFFFFFFFFFFFFFFFFFFFFFFFFFFFFFFFFFw       +BFFFFFFFFFFFFFFFFFFFFFFFFFFFFFFFFFFFFFFFFFFno    %AFFFFF",
"FFFFS*    omFFFFFFFFFFFFFFFFFFFFFFFFFFFFFFFFFFFFFFFFFFF1        zFFFFFFFFFFFFFFFFFFFFFFFFFFFFFFFFFFFFFFFFFFF8     sFFFFF",
"FFFFg     7FFFFFFFFFFFFFFFFFFFFFFFFFFFFFFFFFFFFFFFFFFFA%        iFFFFFFFFFFFFFFFFFFFFFFFFFFFFFFFFFFFFFFFFFFFmo    -DFFFF",
"FFFF<    XbFFFFFFFFFFFFFFFFFFFFFFFFFFFFFFFFFFFFFFFFFFFnX        6FFFFFFFFFFFFFFFFFFFFFFFFFFFFFFFFFFFFFFFFFFFF5     zFFFF",
"FFFnX    1FFFFFFFFFFFFFFFFFFFFFFFFFFFFFFFFFFFFFFFFFFFFg         ;DFFFFFFFFFFFFFFFFFFFFFFFFFFFFFFFFFFFFFFFFFFFx.    6FFFF",
"FFFr     jFFFFFFFFFFFFFFFFFFFFFFFFFFFFFFFFFFFFFFFFFFFFe         +BFFFFFFFFFFFFFFFFFFFFFFFFFFFFFFFFFFFFFFFFFFFF>    +VFFF",
"FFD=    &SFFFFFFFFFFFFFFFFFFFFFFFFFFFFFFFFFFFFFFFFFFFF1          zFFFFFFFFFFFFFFFFFFFFFFFFFFFFFFFFFFFFFFFFFFFFa     sFFF",
"FFc.    wFFFFFFFFFFFFFFFFFFFFFFFFFFFFFFFFFFFFFFFFFFFFA&          iFFFFFFFFFFFFFFFFFFFFFFFFFFFFFFFFFFFFFFFFFFFFV+    2FFF",
"FFe    .vFFFFFFFFFFFFFFFFFFFFFFFFFFFFFFFFFFFFFFFFFFFFnX          6FFFFFFFFFFFFFFFFFFFFFFFFFFFFFFFFFFFFFFFFFFFFF4    +VFF",
"FF:    -DFFFFFFFFFFFFFFFFFFFFFFFFFFFFFFFFFFFFFFFFFFFFg           -DFFFFFFFFFFFFFFFFFFFFFFFFFFFFFFFFFFFFFFFFFFFFf     hFF",
"FMo    wFFFFFFFFFFFFFFFFFFFFFFFFFFFFFFFFFFFFFFFFFFFFFw           +BFFFFFFFFFFFFFFFFFFFFFFFFFFFFFFFFFFFFFFFFFFFFB+    9FF",
"Ff     lFFFFFFFFFFFFFFFFFFFFFFFFFFFFFFFFFFFFFFFFFFFFF1            zFFFFFFFFFFFFFFFFFFFFFFFFFFFFFFFFFFFFFFFFFFFFF<    -DF",
"F9    #CFFFFFFFFFFFFFFFFFFFFFFFFFFFFFFFFFFFFFFFFFFFFA%            iFFFFFFFFFFFFFFFFFFFFFFFFFFFFFFFFFFFFFFFFFFFFFt    oMF",
"F:    <FFFFFFFFFFFFFFFFFFFFFFFFFFFFFFFFFFFFFFFFFFFFFnX            6FFFFFFFFFFFFFFFFFFFFFFFFFFFFFFFFFFFFFFFFFFFFFz     hF",
"Z@    eFFFFFFFFFFFFFFFFFFFFFFFFFFFFFFFFFFFFFFFFFFFFFg             ;DFFFFFFFFFFFFFFFFFFFFFFFFFFFFFFFFFFFFFFFFFFFFV@    eF",
"n     hFFFFFFFFFFFFFFFFFFFFFFFFFFFFFFFFFFFFFFFFFFFFFw             +BFFFFFFFFFFFFFFFFFFFFFFFFFFFFFFFFFFFFFFFFFFFFF:    3F",
"j    XnFFFFFFFFFFFFFFFFFFFFFFFFFFFFFFFFFFFFFFFFFFFFF1              zFFFFFFFFFFFFFFFFFFFFFFFFFFFFFFFFFFFFFFFFFFFFF7    =F",
"u    %ZFFFFFFFFFFFFFFFFFFFFFFFFFFFFFFFFFFFFFFFFFFFFA%              iFFFFFFFFFFFFFFFFFFFFFFFFFFFFFFFFFFFFFFFFFFFFFu    @Z",
"8    :FDuilmZFFFFFFFFFFFFFFFFFFFFFFFFFFFFFFFFFFFFFFnX              6FFFFFFFFFFFFFFFFFFFFFFFFFFFFFFFFFFFFFFFFFFFFFh    .m",
"<    4FS#  X%>6tgvVDFFFFFFFFFFFFFFFFFFFFFFFFFFFFFFFg               ;DFFFFFFFFFFFFFFFFFFFFFFFFFFFFFFFFFFFFFFFFFFFFv.    x",
"=    0FA#        .@-1zFFFFFFFFFFFFFFFFFFFFFFFFFFFFFw               +BFFFFFFFFFFFFFFFFFFFFFFFFFFFFFFFFFFFFFFFFFFFFNO    j",
"#    yFDy4:%+.       tFFFFFFFFFFFFFFFFFFFFFFFFFFFFF1       +o       zFFFFFFFFFFFFFFFFFFFFFFFFFFFFSyweeeeeeeeeewbFZ$    s",
"o    aFFFFFFZms2X    yFFFFFFFFFFFFFFFFFFFFFFFFFFFFC#     <lBmyO     tFFFFFFFFFFFFFFFFFFFFFFFFFFFFCo            pFS*    u",
"X    fFFFFSbp5*o    XsFFFFFFFFFFFFFFFFFFFFFFFFFFFFh     3DFFFFzo    :DFFFFFFFFFFFFFFFFFFFFFFFFFFFC@            sFD;    r",
"X    hFFm5%.     %4anDFFFFFFFFFFFFFFFFFFFFFFFFFFFFw    ONFFFFFF0    +BFFFFFFFFFFFFFFFFFFFFFFFFFFFC@ @79;  ,q:  sFF>    0",
"X    hFFf    o1pvSFFFFFFFFFFFFFFFFFFFFFFFFFFFFFFFF6    >FFFFFFFk    XbFFFFFFFFFFFFFFFFFFFFFFFFFFFC@ :FFi  hFs  sFF,    9",
"X    hFFf    o4gNFFFFFFFFFFFFFFFFFFFFFFFFFFFFFFFFF6    ,FFFFFFFl    XbFFFFFFFFFFFFFFFFFFFFFFFFFFFC@ ;FFy  gFp  sFF,    9",
"X    hFFM6*X    X=9gNFFFFFFFFFFFFFFFFFFFFFFFFFFFFFq    +BFFFFFFq    ONFFFFFFFFFFFFFFFFFFFFFFFFFFFC@ ;FFy  fFp  sFF>    0",
"X    fFFFFDns7-O    +fFFFFFFFFFFFFFFFFFFFFFFFFFFFFg     6FFFFFvO    ;DFFFFFFFFFFFFFFFFFFFFFFFFFFFC@ ;FFt  fFp  sFF;    r",
"o    aFFFFFFAmd3X    tFFFFFFFFFFFFFFFFFFFFFFFFFFFFV@     4vZBa@     rFFFFFFFFFFFFFFFFFFFFFFFFFFFFCO -FFy  fFi  aFS=    y",
"#    yFDa7<*+.       tFFFFFFFFFFFFFFFFFFFFFFFFFFFFF1      .$+       zFFFFFFFFFFFFFFFFFFFFFFFFFFFFZ-@2DFVxxCFd@@fFZ$    a",
"=    qFA#         o%>kFFFFFFFFFFFFFFFFFFFFFFFFFFFFFw               ONFFFFFFFFFFFFFFFFFFFFFFFFFFFFFCVZFFFFFFFSVVSFBO    h",
"<    4FA#  .@-2qalMAFFFFFFFFFFFFFFFFFFFFFFFFFFFFFFFf               -DFFFFFFFFFFFFFFFFFFFFFFFFFFFFFFFFFFFFFFFFFFFFv.    x",
"7    :FDergvVDFFFFFFFFFFFFFFFFFFFFFFFFFFFFFFFFFFFFFb.              5FFFFFFFFFFFFFFFFFFFFFFFFFFFFFFFFFFFFFFFFFFFFFj    .m",
"y    %AFFFFFFFFFFFFFFFFFFFFFFFFFFFFFFFFFFFFFFFFFFFFA%              uFFFFFFFFFFFFFFFFFFFFFFFFFFFFFFFFFFFFFFFFFFFFFi    +Z",
"j    XmFFFFFFFFFFFFFFFFFFFFFFFFFFFFFFFFFFFFFFFFFFFFF1    *duaq     lFFFFFFFFFFFFFFFFFFFFFFFFFFFFFFFFFFFFFFFFFFFFF8    =D",
"b     hFFFFFFFFFFFFFFFFFFFFFFFFFFFFFFFFFFFFFFFFFFFFFq    %DFFp    ONFFFFFFFFFFFFFFFFFFFFFFFFFFFFFFFFFFFFFFFFFFFFF>    2F",
"Z@    rFFFFFFFFFFFFFFFFFFFFFFFFFFFFFFFFFFFFFFFFFFFFFf    .vFF4    -DFFFFFFFFFFFFFFFFFFFFFFFFFFFFFFFFFFFFFFFFFFFFC#    wF",
"F;    1FFFFFFFFFFFFFFFFFFFFFFFFFFFFFFFFFFFFFFFFFFFFFb.    sFD=    5FFFFFFFFFFFFFFFFFFFFFFFFFFFFFFFFFFFFFFFFFFFFFx     gF",
"F8    #ZFFFFFFFFFFFFFFFFFFFFFFFFFFFFFFFFFFFFFFFFFFFFA%    0FNO    uFFFFFFFFFFFFFFFFFFFFFFFFFFFFFFFFFFFFFFFFFFFFFy    omF",
"Fd     zFFFFFFFFFFFFFFFFFFFFFFFFFFFFFFFFFFFFFFFFFFFFF<    >Fl     lFFFFFFFFFFFFFFFFFFFFFFFFFFFFFFFFFFFFFFFFFFFFF1    =DF",
"FmX    eFFFFFFFFFFFFFFFFFFFFFFFFFFFFFFFFFFFFFFFFFFFFFq    #Di    +NFFFFFFFFFFFFFFFFFFFFFFFFFFFFFFFFFFFFFFFFFFFFV@    8FF",
"FD;    ;DFFFFFFFFFFFFFFFFFFFFFFFFFFFFFFFFFFFFFFFFFFFFf    .n7    -DFFFFFFFFFFFFFFFFFFFFFFFFFFFFFFFFFFFFFFFFFFFFg     gFF",
"FFw    .bFFFFFFFFFFFFFFFFFFFFFFFFFFFFFFFFFFFFFFFFFFFFb.    a>    5FFFFFFFFFFFFFFFFFFFFFFFFFFFFFFFFFFFFFFFFFFFFF5    OBFF",
"FFx     rFFFFFFFFFFFFFFFFFFFFFFFFFFFFFFFFFFFFFFFFFFFFA%    1#    uFFFFFFFFFFFFFFFFFFFFFFFFFFFFFFFFFFFFFFFFFFFFC@    1FFF",
"FFS*    *SFFFFFFFFFFFFFFFFFFFFFFFFFFFFFFFFFFFFFFFFFFFF<    .     lFFFFFFFFFFFFFFFFFFFFFFFFFFFFFFFFFFFFFFFFFFFFd     aFFF",
"FFFw     kFFFFFFFFFFFFFFFFFFFFFFFFFFFFFFFFFFFFFFFFFFFFw         OBFFFFFFFFFFFFFFFFFFFFFFFFFFFFFFFFFFFFFFFFFFFF,    +BFFF",
"FFFb.    3FFFFFFFFFFFFFFFFFFFFFFFFFFFFFFFFFFFFFFFFFFFFf         -DFFFFFFFFFFFFFFFFFFFFFFFFFFFFFFFFFFFFFFFFFFFv.    4FFFF",
"FFFF,    XnFFFFFFFFFFFFFFFFFFFFFFFFFFFFFFFFFFFFFFFFFFFbX        6FFFFFFFFFFFFFFFFFFFFFFFFFFFFFFFFFFFFFFFFFFFF7     kFFFF",
"FFFFf     9FFFFFFFFFFFFFFFFFFFFFFFFFFFFFFFFFFFFFFFFFFFA%        uFFFFFFFFFFFFFFFFFFFFFFFFFFFFFFFFFFFFFFFFFFFMO    =SFFFF",
"FFFFA%    ONFFFFFFFFFFFFFFFFFFFFFFFFFFFFFFFFFFFFFFFFFFF<        lFFFFFFFFFFFFFFFFFFFFFFFFFFFFFFFFFFFFFFFFFFF0     pFFFFF",
"FFFFFu     8FFFFFFFFFFFFFFFFFFFFFFFFFFFFFFFFFFFFFFFFFFFw       ONFFFFFFFFFFFFFFFFFFFFFFFFFFFFFFFFFFFFFFFFFFMO    $ZFFFFF",
"FFFFFC#    XbFFFFFFFFFFFFFFFFFFFFFFFFFFFFFFFFFFFFFFFFFFf       -DFFFFFFFFFFFFFFFFFFFFFFFFFFFFFFFFFFFFFFFFFF6     tFFFFFF",
"FFFFFFy     2FFFFFFFFFFFFFFFFFFFFFFFFFFFFFFFFFFFFFFFFFFbX      5FFFFFFFFFFFFFFFFFFFFFFFFFFFFFFFFFFFFFFFFFFc.    #CFFFFFF",
"FFFFFFZ%     hFFFFFFFFFFFFFFFFFFFFFFFFFFFFFFFFFFFFFFFFFA%      uFFFFFFFFFFFFFFFFFFFFFFFFFFFFFFFFFFFFFFFFFD:     uFFFFFFF",
"FFFFFFFs     %CFFFFFFFFFFFFFFFFFFFFFFFFFFFFFFFFFFFFFFFFF<      lFFFFFFFFFFFFFFFFFFFFFFFFFFFFFFFFFFFFFFFFFi     *AFFFFFFF",
"FFFFFFFD:     8FFFFFFFFFFFFFFFFFFFFFFFFFFFFFFFFFFFFFFFFFw     ONFFFFFFFFFFFFFFFFFFFFFFFFFFFFFFFFFFFFFFFFmO     hFFFFFFFF",
"FFFFFFFFx.     hFFFFFFFFFFFFFFFFFFFFFFFFFFFFFFFFFFFFFFFFf     -DFFFFFFFFFFFFFFFFFFFFFFFFFFFFFFFFFFFFFFFD>     2FFFFFFFFF",
"FFFFFFFFF0     @NFFFFFFFFFFFFFFFFFFFFFFFFFFFFFFFFFFFFFFFn.    5FFFFFFFFFFFFFFFFFFFFFFFFFFFFFFFFFFFFFFFFe     OMFFFFFFFFF",
"FFFFFFFFFZ&     ,SFFFFFFFFFFFFFFFFFFFFFFFFFFFFFFFFFFFFFFA#    yFFFFFFFFFFFFFFFFFFFFFFFFFFFFFFFFFFFFFFFj.     pFFFFFFFFFF",
"FFFFFFFFFFz.     9FFFFFFFFFFFFFFFFFFFFFFFFFFFFFFFFFFFFFFF9   omFFFFFFFFFFFFFFFFFFFFFFFFFFFFFFFFFFFFFFm@     1FFFFFFFFFFF",
"FFFFFFFFFFFr      iFFFFFFFFFFFFFFFFFFFFFFFFFFFFFFFFFFFFFFA0*,lFFFFFFFFFFFFFFFFFFFFFFFFFFFFFFFFFFFFFFC=     #BFFFFFFFFFFF",
"FFFFFFFFFFFF<     .gFFFFFFFFFFFFFFFFFFFFFFFFFFFFFFFFFFFFFFFDFFFFFFFFFFFFFFFFFFFFFFFFFFFFFFFFFFFFFFFS,     .kFFFFFFFFFFFF",
"FFFFFFFFFFFFB%     okFFFFFFFFFFFFFFFFFFFFFFFFFFFFFFFFFFFFFFFFFFFFFFFFFFFFFFFFFFFFFFFFFFFFFFFFFFFFFS3      yFFFFFFFFFFFFF",
"FFFFFFFFFFFFFvO     OzFFFFFFFFFFFFFFFFFFFFFFFFFFFFFFFFFFz7>:,8jFFFFFFFFFFFFFFFFFFFFFFFFFFFFFFFFFFS4      6FFFFFFFFFFFFFF",
"FFFFFFFFFFFFFFh.     OjFFFFFFFFFFFFFFFFFFFFFFFFFFFFFFFFe       7DFFFFFFFFFFFFFFFFFFFFFFFFFFFFFFFS4      ,SFFFFFFFFFFFFFF",
"FFFFFFFFFFFFFFFp      ofFFFFFFFFFFFFFFFFFFFFFFFFFFFFFFj   +*o   tFFFFFFFFFFFFFFFFFFFFFFFFFFFFFFC1      -CFFFFFFFFFFFFFFF",
"FFFFFFFFFFFFFFFFy      .yFFFFFFFFFFFFFFFFFFFFFFFFFFFFF7  ;NSm1  OVFFFFFFFFFFFFFFFFFFFFFFFFFFFFM;      =BFFFFFFFFFFFFFFFF",
"FFFFFFFFFFFFFFFFFt       8SFFFFFFFFFFFFFFFFFFFFFFFFFFF2  3FFFV;5gAFFFFFFFFFFFFFFFFFFFFFFFFFFFz$      =NFFFFFFFFFFFFFFFFF",
"FFFFFFFFFFFFFFFFFFy       >mFFFFFFFFFFFFFFFFFFFFFFFFFF9   <anDFFFFFFFFFFFFFFFFFFFFFFFFFFFFFFuX      -NFFFFFFFFFFFFFFFFFF",
"FFFFFFFFFFFFFFFFFFFaX      @dFFFFFFFFFFFFFFFFFFFFFFFFFn+    X=eNFFFFFFFFFFFFFFFFFFFFFFFFFFB3       >VFFFFFFFFFFFFFFFFFFF",
"FFFFFFFFFFFFFFFFFFFFj+       5NFFFFFFFFFFFFFFFFFFFFFFFFv<X     #bFFFFFFFFFFFFFFFFFFFFFFFFf$       4AFFFFFFFFFFFFFFFFFFFF",
"FFFFFFFFFFFFFFFFFFFFFb*       #aFFFFFFFFFFFFFFFFFFFFFFFFFMs6*   2FFFFFFFFFFFFFFFFFFFFFFm3        wFFFFFFFFFFFFFFFFFFFFFF",
"FFFFFFFFFFFFFFFFFFFFFFV3        >zFFFFFFFFFFFFFFFFFFFFFFcVFFDy  %AFFFFFFFFFFFFFFFFFFFCr+       +fFFFFFFFFFFFFFFFFFFFFFFF",
"FFFFFFFFFFFFFFFFFFFFFFFFuX        4cFFFFFFFFFFFFFFFFFFh- =vSSt  &SFFFFFFFFFFFFFFFFFAi%        >nFFFFFFFFFFFFFFFFFFFFFFFF",
"FFFFFFFFFFFFFFFFFFFFFFFFFc;        .3zFFFFFFFFFFFFFFFFk   X*&   9FFFFFFFFFFFFFFFFVy&        XeSFFFFFFFFFFFFFFFFFFFFFFFFF",
"FFFFFFFFFFFFFFFFFFFFFFFFFFSro         >aVFFFFFFFFFFFFFFd+      <CFFFFFFFFFFFFFFc0@         :xFFFFFFFFFFFFFFFFFFFFFFFFFFF",
"FFFFFFFFFFFFFFFFFFFFFFFFFFFFb1          #7kZFFFFFFFFFFFFmw>--2sDFFFFFFFFFFFFmu:.         #uDFFFFFFFFFFFFFFFFFFFFFFFFFFFF",
"FFFFFFFFFFFFFFFFFFFFFFFFFFFFFFh-           $5snDFFFFFFFFFFFDFFFFFFFFFFFFCze:X          o9NFFFFFFFFFFFFFFFFFFFFFFFFFFFFFF",
"FFFFFFFFFFFFFFFFFFFFFFFFFFFFFFFSs=            X=6ukmZDFFFFFFFFFFFFSBcfq<#            o6bFFFFFFFFFFFFFFFFFFFFFFFFFFFFFFFF",
"FFFFFFFFFFFFFFFFFFFFFFFFFFFFFFFFFAd>               o$-150wruyeq73>*+               +9nFFFFFFFFFFFFFFFFFFFFFFFFFFFFFFFFFF",
"FFFFFFFFFFFFFFFFFFFFFFFFFFFFFFFFFFFFl5+                                          -yNFFFFFFFFFFFFFFFFFFFFFFFFFFFFFFFFFFFF",
"FFFFFFFFFFFFFFFFFFFFFFFFFFFFFFFFFFFFFFBp,o                                    %9zSFFFFFFFFFFFFFFFFFFFFFFFFFFFFFFFFFFFFFF",
"FFFFFFFFFFFFFFFFFFFFFFFFFFFFFFFFFFFFFFFFFMp3$                             o-qlZFFFFFFFFFFFFFFFFFFFFFFFFFFFFFFFFFFFFFFFFF",
"FFFFFFFFFFFFFFFFFFFFFFFFFFFFFFFFFFFFFFFFFFFFZxu4=+                   X$,0fmDFFFFFFFFFFFFFFFFFFFFFFFFFFFFFFFFFFFFFFFFFFFF",
"FFFFFFFFFFFFFFFFFFFFFFFFFFFFFFFFFFFFFFFFFFFFFFFFFVbjpq5,-*%@#&=>28tfzMAFFFFFFFFFFFFFFFFFFFFFFFFFFFFFFFFFFFFFFFFFFFFFFFFF"
};
