/* XPM */
static char *_b55aa07113b4467af705c2936440e5bflNjnFe99pLJfOjz[] = {
/* columns rows colors chars-per-pixel */
"64 64 13 1 ",
"  c black",
". c gray13",
"X c #6D4C41",
"o c #79444A",
"O c #F44336",
"+ c #E91E63",
"@ c #AE5D40",
"# c #FF9800",
"$ c #FFC107",
"% c #BA9158",
"& c #673AB7",
"* c #9C27B0",
"= c white",
/* pixels */
"XXXXXXXX............$$$$########................XXXX........####",
"XXXXXXXX............$$$$########................XXXX........####",
"XXXXXXXX............$$$$########................XXXX........####",
"XXXXXXXX............$$$$########................XXXX........####",
"........%%%%%%%%%%%%%%%%%%%%%%%%%%%%%%%%%%%%%%%%%%%%%%%%........",
"........%%%%%%%%%%%%%%%%%%%%%%%%%%%%%%%%%%%%%%%%%%%%%%%%........",
"........%%%%%%%%%%%%%%%%%%%%%%%%%%%%%%%%%%%%%%%%%%%%%%%%........",
"........%%%%%%%%%%%%%%%%%%%%%%%%%%%%%%%%%%%%%%%%%%%%%%%%........",
"XXXX%%%%%%%%                                        %%%%%%%%XXXX",
"XXXX%%%%%%%%                                        %%%%%%%%XXXX",
"XXXX%%%%%%%%                                        %%%%%%%%XXXX",
"XXXX%%%%%%%%                                        %%%%%%%%XXXX",
"....%%%%%%%%    ========************************    %%%%%%%%....",
"....%%%%%%%%    ========************************    %%%%%%%%....",
"....%%%%%%%%    ========************************    %%%%%%%%....",
"....%%%%%%%%    ========************************    %%%%%%%%....",
"....%%%%@@@@    ====OOOOOOOO++++++++++++++++++++    @@@@%%%%....",
"....%%%%@@@@    ====OOOOOOOO++++++++++++++++++++    @@@@%%%%....",
"....%%%%@@@@    ====OOOOOOOO++++++++++++++++++++    @@@@%%%%....",
"....%%%%@@@@    ====OOOOOOOO++++++++++++++++++++    @@@@%%%%....",
"....%%%%@@@@    ++++        ++++++++++++++++        @@@@%%%%....",
"....%%%%@@@@    ++++        ++++++++++++++++        @@@@%%%%....",
"....%%%%@@@@    ++++        ++++++++++++++++        @@@@%%%%....",
"....%%%%@@@@    ++++        ++++++++++++++++        @@@@%%%%....",
"....%%%%@@@@    ++++        ++++++++++++++++        @@@@%%%%....",
"....%%%%@@@@    ++++        ++++++++++++++++        @@@@%%%%....",
"....%%%%@@@@    ++++        ++++++++++++++++        @@@@%%%%....",
"....%%%%@@@@    ++++        ++++++++++++++++        @@@@%%%%....",
"####%%%%@@@@    ++++++++++++++++++++++++++++++++    @@@@%%%%XXXX",
"####%%%%@@@@    ++++++++++++++++++++++++++++++++    @@@@%%%%XXXX",
"####%%%%@@@@    ++++++++++++++++++++++++++++++++    @@@@%%%%XXXX",
"####%%%%@@@@    ++++++++++++++++++++++++++++++++    @@@@%%%%XXXX",
"$$$$oooo@@@@    ++++    ++++    ++++    ++++        @@@@oooo$$$$",
"$$$$oooo@@@@    ++++    ++++    ++++    ++++        @@@@oooo$$$$",
"$$$$oooo@@@@    ++++    ++++    ++++    ++++        @@@@oooo$$$$",
"$$$$oooo@@@@    ++++    ++++    ++++    ++++        @@@@oooo$$$$",
"$$$$oooo@@@@            ++++            ++++        @@@@oooo....",
"$$$$oooo@@@@            ++++            ++++        @@@@oooo....",
"$$$$oooo@@@@            ++++            ++++        @@@@oooo....",
"$$$$oooo@@@@            ++++            ++++        @@@@oooo....",
"....oooo                                                oooo....",
"....oooo                                                oooo....",
"....oooo                                                oooo....",
"....oooo                                                oooo....",
"....        ++++                ++++            ****        ....",
"....        ++++                ++++            ****        ....",
"....        ++++                ++++            ****        ....",
"....        ++++                ++++            ****        ....",
"XXXX    ****&&&&++++    ++++    ++++    ++++    &&&&****    ....",
"XXXX    ****&&&&++++    ++++    ++++    ++++    &&&&****    ....",
"XXXX    ****&&&&++++    ++++    ++++    ++++    &&&&****    ....",
"XXXX    ****&&&&++++    ++++    ++++    ++++    &&&&****    ....",
"XXXX    ************************************************    XXXX",
"XXXX    ************************************************    XXXX",
"XXXX    ************************************************    XXXX",
"XXXX    ************************************************    XXXX",
"....                                                        ....",
"....                                                        ....",
"....                                                        ....",
"....                                                        ....",
"XXXX........####........................................XXXX....",
"XXXX........####........................................XXXX....",
"XXXX........####........................................XXXX....",
"XXXX........####........................................XXXX...."
};
