/* XPM */
static char *result[] = {
/* columns rows colors chars-per-pixel */
"32 32 7 1 ",
"  c #1A237E",
". c #0D47A1",
"X c #1565C0",
"o c #64B5F6",
"O c #90CAF9",
"+ c #E8EAF6",
"@ c None",
/* pixels */
"@@@@@@@@@@@@@@@@@@@@@@@@@@@@@@@@",
"@@@@@@@@@@@@@@@@@@@@@@@@@@@@@@@@",
"@@@@@@@@@@@@@@@@@@@@@@@@@@@@@@@@",
"@@@@@@@@@@@@@@...X@@@@@@@@@@@@@@",
"@@@@@@@.@@@@@.....X@@@@@@@@@@@@@",
"@@@@@@@@@@@@@......@@@@@@@@@@@@@",
"@@@@@@@@@.@@.......X@@@@@@@@@@@@",
"@@@@@@@@...@........@@@@@@@@@@@@",
"@@@@@@@@............@..X@@@@@@@@",
"@@@@@@@..................@@@@@@@",
"@@@@@@@..................@@@@@@@",
"@@@@@@...................X@@@@@@",
"@@@@@@...................X@@@@@@",
"@@@@@@.....................@@@@@",
"@@@@@@..............X...X..@@@@@",
"@@@@@...............XX..XX.@@@@@",
"@@@@@.+ ............XX.XX..@@@@@",
"@@@@@.  ..X......X..XXXXX.@@@@@@",
"@@@@@.  ..X+ ....X..XXXX..@@@@@@",
"@@@@@@  XXX  X.XXX.XXXXX.@@@@@@@",
"@@@@@@..XXX  XXXXXXXXXoX.@@@@@@@",
"@@@@@@@..Xo  XXXXooXXoo.@@@@@@@@",
"@@@@@@@..XoooXoooOooooX.@@@@@@@@",
"@@@@@@@@..XoooooOOOooX@@@@@@@@@@",
"@@@@@@@@@XXoOOOOOOOOX@@@@@@@@@@@",
"@@@@@@@@@@@XO++++OXX@@@@@@@@@@@@",
"@@@@@@@@@@@@XO++OX@@@@@@@@@@@@@@",
"@@@@@@@@@@@@@@@@@@@@@@@@@@@@@@@@",
"@@@@@@@@@@@@@@@@@@@@@@@@@@@@@@@@",
"@@@@@@@@@@@@@@@@@@@@@@@@@@@@@@@@",
"@@@@@@@@@@@@@@@@@@@@@@@@@@@@@@@@",
"@@@@@@@@@@@@@@@@@@@@@@@@@@@@@@@@"
};
